<svg width="86" height="86" viewBox="0 0 86 86" fill="none" xmlns="http://www.w3.org/2000/svg">
    <path d="M62.9752 72.738C64.9495 71.4127 66.7571 69.9119 68.3891 68.2619L74.5313 71.7111C77.4445 69.3414 79.445 66.5504 80.5419 63.3293L75.1455 58.7567C75.6544 57.7386 76.1019 56.6941 76.5056 55.6234C76.9355 54.5 77.2953 53.3502 77.6112 52.1829L84.6571 52.0951C85.9909 48.5844 86.3331 45.1615 85.675 41.8264L78.7343 40.5625C78.5764 38.2455 78.1903 35.9284 77.5673 33.6377L83.6217 30.0392C83.0251 26.3442 81.6124 23.2109 79.3661 20.6481L72.7238 23.0266C71.3988 21.0518 69.9071 19.2438 68.2575 17.6026L71.7059 11.4677C69.3456 8.55378 66.5377 6.55269 63.3262 5.4556L58.7547 10.8445C57.7281 10.3442 56.6927 9.88784 55.6222 9.49289C54.4903 9.06283 53.3496 8.70299 52.1826 8.3958L52.0948 1.33931C48.5938 0.00524561 45.1717 -0.328268 41.8286 0.32121L40.5651 7.2636C38.2574 7.42158 35.9321 7.80776 33.6332 8.4309L30.0444 2.37496C26.3415 2.97178 23.209 4.39361 20.6469 6.63167L23.0248 13.2757C21.0505 14.5922 19.2429 16.093 17.6109 17.743L11.4687 14.285C8.56432 16.6547 6.55495 19.4545 5.45813 22.6755L10.8457 27.2394C10.3456 28.2575 9.89805 29.3107 9.49442 30.3639C9.06447 31.4961 8.69594 32.6459 8.38883 33.8044L1.34288 33.901C0.00914528 37.4029 -0.333062 40.8258 0.325029 44.161L7.26569 45.4248C7.42363 47.7331 7.80971 50.0502 8.4327 52.3497L2.37827 55.9481C2.97494 59.6519 4.39641 62.7764 6.63392 65.348L13.2762 62.9695C14.6012 64.9443 16.1016 66.7523 17.7425 68.3847L14.2941 74.5284C16.6632 77.4335 19.4535 79.4434 22.6738 80.5405L27.2453 75.1516C28.2719 75.6519 29.3073 76.0995 30.3778 76.5032C31.501 76.9333 32.6504 77.2931 33.8174 77.6091L33.9052 84.6568C37.4062 85.9909 40.8283 86.3331 44.1626 85.6749L45.4262 78.7325C47.7426 78.5745 50.0591 78.1883 52.3493 77.5652L55.9468 83.6211C59.6409 83.0243 62.7734 81.6025 65.3444 79.3644L62.9752 72.738ZM65.1425 51.3403C63.0103 57.0101 58.7108 61.8636 52.7617 64.5581C46.8038 67.2525 40.3282 67.2789 34.6598 65.1461C29.0002 63.0134 24.1479 58.7128 21.4541 52.7622C18.7603 46.8115 18.734 40.3343 20.8662 34.6558C22.9984 28.9948 27.2892 24.1413 33.2471 21.4468C39.1962 18.7436 45.6718 18.726 51.3402 20.8588C57.0086 22.9827 61.8609 27.2833 64.5459 33.2427C67.2484 39.1933 67.2748 45.6793 65.1425 51.3403Z"/>
</svg>
